<?xml version="1.0" encoding="UTF-8" standalone="no"?>
<!DOCTYPE svg PUBLIC "-//W3C//DTD SVG 1.1//EN"
 "http://www.w3.org/Graphics/SVG/1.1/DTD/svg11.dtd">
<!-- Generated by graphviz version 2.38.0 (20140413.2041)
 -->
<!-- Title: Hidden Markov Model Pages: 1 -->
<svg width="361pt" height="392pt"
 viewBox="0.00 0.00 361.10 392.00" xmlns="http://www.w3.org/2000/svg" xmlns:xlink="http://www.w3.org/1999/xlink">
<g id="graph0" class="graph" transform="scale(1 1) rotate(0) translate(4 388)">
<title>Hidden Markov Model</title>
<polygon fill="white" stroke="none" points="-4,4 -4,-388 357.097,-388 357.097,4 -4,4"/>
<!-- q&#45;0 -->
<g id="node1" class="node"><title>q&#45;0</title>
<ellipse fill="lightblue" stroke="lightblue" cx="116.097" cy="-279" rx="33.2948" ry="18"/>
<text text-anchor="middle" x="116.097" y="-275.3" font-family="Times,serif" font-size="14.00">Sunny</text>
</g>
<!-- q&#45;0&#45;&gt;q&#45;0 -->
<g id="edge11" class="edge"><title>q&#45;0&#45;&gt;q&#45;0</title>
<path fill="none" stroke="black" d="M146.042,-286.844C157.621,-287.193 167.244,-284.578 167.244,-279 167.244,-275.165 162.695,-272.731 156.09,-271.697"/>
<polygon fill="black" stroke="black" points="156.216,-268.199 146.042,-271.156 155.84,-275.189 156.216,-268.199"/>
<text text-anchor="middle" x="179.744" y="-275.3" font-family="Times,serif" font-size="14.00">0.60</text>
</g>
<!-- q&#45;1 -->
<g id="node2" class="node"><title>q&#45;1</title>
<ellipse fill="lightblue" stroke="lightblue" cx="151.097" cy="-192" rx="31.6951" ry="18"/>
<text text-anchor="middle" x="151.097" y="-188.3" font-family="Times,serif" font-size="14.00">Rainy</text>
</g>
<!-- q&#45;0&#45;&gt;q&#45;1 -->
<g id="edge12" class="edge"><title>q&#45;0&#45;&gt;q&#45;1</title>
<path fill="none" stroke="black" d="M110.25,-261.091C107.773,-251.06 106.411,-238.327 111.097,-228 113.749,-222.155 117.914,-216.902 122.573,-212.351"/>
<polygon fill="black" stroke="black" points="124.881,-214.982 130.154,-205.793 120.301,-209.688 124.881,-214.982"/>
<text text-anchor="middle" x="123.597" y="-231.8" font-family="Times,serif" font-size="14.00">0.30</text>
</g>
<!-- q&#45;2 -->
<g id="node3" class="node"><title>q&#45;2</title>
<ellipse fill="lightblue" stroke="lightblue" cx="35.0969" cy="-105" rx="35.194" ry="18"/>
<text text-anchor="middle" x="35.0969" y="-101.3" font-family="Times,serif" font-size="14.00">Snowy</text>
</g>
<!-- q&#45;0&#45;&gt;q&#45;2 -->
<g id="edge13" class="edge"><title>q&#45;0&#45;&gt;q&#45;2</title>
<path fill="none" stroke="black" d="M89.9371,-267.88C67.1194,-257.371 35.878,-238.442 24.0969,-210 13.8267,-185.206 19.0836,-154.372 25.361,-132.739"/>
<polygon fill="black" stroke="black" points="28.7863,-133.514 28.4611,-122.925 22.1114,-131.406 28.7863,-133.514"/>
<text text-anchor="middle" x="36.5969" y="-188.3" font-family="Times,serif" font-size="14.00">0.10</text>
</g>
<!-- o&#45;0 -->
<g id="node4" class="node"><title>o&#45;0</title>
<ellipse fill="#d3f0ce" stroke="#d3f0ce" cx="280.097" cy="-105" rx="27" ry="18"/>
<text text-anchor="middle" x="280.097" y="-101.3" font-family="Times,serif" font-size="14.00">Ant</text>
</g>
<!-- q&#45;0&#45;&gt;o&#45;0 -->
<g id="edge4" class="edge"><title>q&#45;0&#45;&gt;o&#45;0</title>
<path fill="none" stroke="black" d="M142.226,-267.673C168.127,-256.454 207.783,-236.522 235.097,-210 255.276,-190.406 257.35,-181.993 268.097,-156 271.098,-148.74 273.454,-140.563 275.254,-132.958"/>
<polygon fill="black" stroke="black" points="278.697,-133.592 277.371,-123.08 271.853,-132.124 278.697,-133.592"/>
<text text-anchor="middle" x="273.597" y="-188.3" font-family="Times,serif" font-size="14.00">0.80</text>
</g>
<!-- o&#45;1 -->
<g id="node5" class="node"><title>o&#45;1</title>
<ellipse fill="#d3f0ce" stroke="#d3f0ce" cx="210.097" cy="-18" rx="28.6953" ry="18"/>
<text text-anchor="middle" x="210.097" y="-14.3" font-family="Times,serif" font-size="14.00">Snail</text>
</g>
<!-- q&#45;0&#45;&gt;o&#45;1 -->
<g id="edge5" class="edge"><title>q&#45;0&#45;&gt;o&#45;1</title>
<path fill="none" stroke="black" d="M148.49,-274.353C187.84,-268.165 253.49,-251.879 290.097,-210 326.869,-167.931 342.895,-136.029 316.097,-87 301.008,-59.3927 269.39,-41.3364 244.593,-30.8166"/>
<polygon fill="black" stroke="black" points="245.717,-27.4966 235.133,-27.021 243.111,-33.9932 245.717,-27.4966"/>
<text text-anchor="middle" x="340.597" y="-144.8" font-family="Times,serif" font-size="14.00">0.20</text>
</g>
<!-- q&#45;1&#45;&gt;q&#45;0 -->
<g id="edge14" class="edge"><title>q&#45;1&#45;&gt;q&#45;0</title>
<path fill="none" stroke="black" d="M147.027,-210.005C144.421,-219.839 140.671,-232.339 136.097,-243 134.702,-246.25 133.079,-249.581 131.372,-252.833"/>
<polygon fill="black" stroke="black" points="128.263,-251.223 126.458,-261.663 134.379,-254.627 128.263,-251.223"/>
<text text-anchor="middle" x="154.597" y="-231.8" font-family="Times,serif" font-size="14.00">0.40</text>
</g>
<!-- q&#45;1&#45;&gt;q&#45;1 -->
<g id="edge15" class="edge"><title>q&#45;1&#45;&gt;q&#45;1</title>
<path fill="none" stroke="black" d="M179.782,-199.827C191.287,-200.269 200.944,-197.66 200.944,-192 200.944,-188.109 196.38,-185.659 189.789,-184.652"/>
<polygon fill="black" stroke="black" points="189.938,-181.156 179.782,-184.173 189.603,-188.148 189.938,-181.156"/>
<text text-anchor="middle" x="213.444" y="-188.3" font-family="Times,serif" font-size="14.00">0.40</text>
</g>
<!-- q&#45;1&#45;&gt;q&#45;2 -->
<g id="edge16" class="edge"><title>q&#45;1&#45;&gt;q&#45;2</title>
<path fill="none" stroke="black" d="M124.763,-181.608C104.319,-173.982 78.0015,-163.327 69.0969,-156 60.915,-149.267 53.8994,-140.071 48.4023,-131.4"/>
<polygon fill="black" stroke="black" points="51.3454,-129.501 43.2384,-122.68 45.3222,-133.068 51.3454,-129.501"/>
<text text-anchor="middle" x="81.5969" y="-144.8" font-family="Times,serif" font-size="14.00">0.20</text>
</g>
<!-- q&#45;1&#45;&gt;o&#45;0 -->
<g id="edge6" class="edge"><title>q&#45;1&#45;&gt;o&#45;0</title>
<path fill="none" stroke="black" d="M175.468,-180.288C189.023,-173.929 205.96,-165.305 220.097,-156 233.094,-147.446 246.495,-136.514 257.326,-127.055"/>
<polygon fill="black" stroke="black" points="259.916,-129.436 265.058,-120.173 255.261,-124.207 259.916,-129.436"/>
<text text-anchor="middle" x="252.597" y="-144.8" font-family="Times,serif" font-size="14.00">0.10</text>
</g>
<!-- q&#45;1&#45;&gt;o&#45;1 -->
<g id="edge7" class="edge"><title>q&#45;1&#45;&gt;o&#45;1</title>
<path fill="none" stroke="black" d="M160.927,-174.62C164.127,-168.863 167.516,-162.265 170.097,-156 185.326,-119.026 197.25,-74.2246 203.984,-46.1579"/>
<polygon fill="black" stroke="black" points="207.427,-46.8072 206.307,-36.2717 200.613,-45.206 207.427,-46.8072"/>
<text text-anchor="middle" x="205.597" y="-101.3" font-family="Times,serif" font-size="14.00">0.60</text>
</g>
<!-- o&#45;2 -->
<g id="node6" class="node"><title>o&#45;2</title>
<ellipse fill="#d3f0ce" stroke="#d3f0ce" cx="79.0969" cy="-18" rx="48.9926" ry="18"/>
<text text-anchor="middle" x="79.0969" y="-14.3" font-family="Times,serif" font-size="14.00">White Fox</text>
</g>
<!-- q&#45;1&#45;&gt;o&#45;2 -->
<g id="edge8" class="edge"><title>q&#45;1&#45;&gt;o&#45;2</title>
<path fill="none" stroke="black" d="M150.912,-173.74C150.273,-141.478 147.454,-73.5265 135.097,-54 131.05,-47.606 125.368,-42.1826 119.163,-37.6542"/>
<polygon fill="black" stroke="black" points="120.776,-34.529 110.481,-32.0269 116.969,-40.403 120.776,-34.529"/>
<text text-anchor="middle" x="161.597" y="-101.3" font-family="Times,serif" font-size="14.00">0.30</text>
</g>
<!-- q&#45;2&#45;&gt;q&#45;0 -->
<g id="edge17" class="edge"><title>q&#45;2&#45;&gt;q&#45;0</title>
<path fill="none" stroke="black" d="M40.1253,-122.912C43.2181,-132.716 47.4681,-145.216 52.0969,-156 66.8377,-190.344 87.4277,-228.215 101.234,-252.512"/>
<polygon fill="black" stroke="black" points="98.3361,-254.494 106.345,-261.431 104.41,-251.014 98.3361,-254.494"/>
<text text-anchor="middle" x="90.5969" y="-188.3" font-family="Times,serif" font-size="14.00">0.10</text>
</g>
<!-- q&#45;2&#45;&gt;q&#45;1 -->
<g id="edge18" class="edge"><title>q&#45;2&#45;&gt;q&#45;1</title>
<path fill="none" stroke="black" d="M58.4156,-118.512C69.526,-124.802 82.819,-132.816 94.0969,-141 105.866,-149.541 118.092,-160.021 128.189,-169.176"/>
<polygon fill="black" stroke="black" points="126.055,-171.969 135.78,-176.172 130.799,-166.822 126.055,-171.969"/>
<text text-anchor="middle" x="125.597" y="-144.8" font-family="Times,serif" font-size="14.00">0.40</text>
</g>
<!-- q&#45;2&#45;&gt;q&#45;2 -->
<g id="edge19" class="edge"><title>q&#45;2&#45;&gt;q&#45;2</title>
<path fill="none" stroke="black" d="M66.713,-112.858C78.4952,-113.115 88.1938,-110.496 88.1938,-105 88.1938,-101.221 83.6097,-98.8026 76.916,-97.7436"/>
<polygon fill="black" stroke="black" points="76.9016,-94.2368 66.713,-97.1423 76.4897,-101.225 76.9016,-94.2368"/>
<text text-anchor="middle" x="100.694" y="-101.3" font-family="Times,serif" font-size="14.00">0.50</text>
</g>
<!-- q&#45;2&#45;&gt;o&#45;1 -->
<g id="edge9" class="edge"><title>q&#45;2&#45;&gt;o&#45;1</title>
<path fill="none" stroke="black" d="M59.7989,-92.0019C91.0604,-76.8177 144.925,-50.6548 178.968,-34.1199"/>
<polygon fill="black" stroke="black" points="180.543,-37.246 188.009,-29.7286 177.484,-30.9494 180.543,-37.246"/>
<text text-anchor="middle" x="145.597" y="-57.8" font-family="Times,serif" font-size="14.00">0.10</text>
</g>
<!-- q&#45;2&#45;&gt;o&#45;2 -->
<g id="edge10" class="edge"><title>q&#45;2&#45;&gt;o&#45;2</title>
<path fill="none" stroke="black" d="M41.3471,-86.9771C45.1805,-77.1361 50.4305,-64.6361 56.0969,-54 57.7892,-50.8235 59.6869,-47.5669 61.6474,-44.3798"/>
<polygon fill="black" stroke="black" points="64.7592,-46.0116 67.2203,-35.7065 58.87,-42.2276 64.7592,-46.0116"/>
<text text-anchor="middle" x="68.5969" y="-57.8" font-family="Times,serif" font-size="14.00">0.90</text>
</g>
<!-- pi -->
<g id="node7" class="node"><title>pi</title>
<ellipse fill="none" stroke="black" cx="40.0969" cy="-366" rx="27" ry="18"/>
<text text-anchor="middle" x="40.0969" y="-362.3" font-family="Times,serif" font-size="14.00">pi</text>
</g>
<!-- pi&#45;&gt;q&#45;0 -->
<g id="edge1" class="edge"><title>pi&#45;&gt;q&#45;0</title>
<path fill="none" stroke="black" d="M53.3351,-350.194C64.8895,-337.271 81.8538,-318.298 95.2332,-303.334"/>
<polygon fill="black" stroke="black" points="98.1839,-305.285 102.24,-295.498 92.9656,-300.619 98.1839,-305.285"/>
<text text-anchor="middle" x="95.5969" y="-318.8" font-family="Times,serif" font-size="14.00">0.30</text>
</g>
<!-- pi&#45;&gt;q&#45;1 -->
<g id="edge2" class="edge"><title>pi&#45;&gt;q&#45;1</title>
<path fill="none" stroke="black" d="M37.2844,-347.8C34.6292,-325.989 33.1238,-287.979 49.0969,-261 64.1539,-235.568 92.8893,-217.718 116.033,-206.708"/>
<polygon fill="black" stroke="black" points="117.563,-209.857 125.23,-202.545 114.676,-203.48 117.563,-209.857"/>
<text text-anchor="middle" x="61.5969" y="-275.3" font-family="Times,serif" font-size="14.00">0.30</text>
</g>
<!-- pi&#45;&gt;q&#45;2 -->
<g id="edge3" class="edge"><title>pi&#45;&gt;q&#45;2</title>
<path fill="none" stroke="black" d="M34.0699,-348.315C26.0291,-325.082 12.2118,-281.499 7.09689,-243 2.85785,-211.094 6.44321,-176.095 17.0969,-141 18.0198,-137.96 19.2013,-134.869 20.5171,-131.847"/>
<polygon fill="black" stroke="black" points="23.8022,-133.094 25.0251,-122.57 17.5063,-130.035 23.8022,-133.094"/>
<text text-anchor="middle" x="19.5969" y="-231.8" font-family="Times,serif" font-size="14.00">0.40</text>
</g>
</g>
</svg>
