<?xml version="1.0" encoding="UTF-8" standalone="no"?>
<!DOCTYPE svg PUBLIC "-//W3C//DTD SVG 1.1//EN"
 "http://www.w3.org/Graphics/SVG/1.1/DTD/svg11.dtd">
<!-- Generated by graphviz version 2.40.1 (20161225.0304)
 -->
<!-- Title: Hidden Markov Model Pages: 1 -->
<svg width="418pt" height="392pt"
 viewBox="0.00 0.00 417.90 392.00" xmlns="http://www.w3.org/2000/svg" xmlns:xlink="http://www.w3.org/1999/xlink">
<g id="graph0" class="graph" transform="scale(1 1) rotate(0) translate(4 388)">
<title>Hidden Markov Model</title>
<polygon fill="#ffffff" stroke="transparent" points="-4,4 -4,-388 413.8973,-388 413.8973,4 -4,4"/>
<!-- q&#45;0 -->
<g id="node1" class="node">
<title>q&#45;0</title>
<ellipse fill="#add8e6" stroke="#add8e6" cx="206.8973" cy="-279" rx="35.9954" ry="18"/>
<text text-anchor="middle" x="206.8973" y="-275.3" font-family="Times,serif" font-size="14.00" fill="#000000">Sunny</text>
</g>
<!-- q&#45;0&#45;&gt;q&#45;0 -->
<g id="edge13" class="edge">
<title>q&#45;0&#45;&gt;q&#45;0</title>
<path fill="none" stroke="#000000" d="M239.1671,-286.863C250.9729,-287.0761 260.6442,-284.4551 260.6442,-279 260.6442,-275.2496 256.073,-272.8388 249.3797,-271.7675"/>
<polygon fill="#000000" stroke="#000000" points="249.3638,-268.26 239.1671,-271.137 248.9324,-275.2467 249.3638,-268.26"/>
<text text-anchor="middle" x="274.1442" y="-275.3" font-family="Times,serif" font-size="14.00" fill="#000000">0.43</text>
</g>
<!-- q&#45;1 -->
<g id="node2" class="node">
<title>q&#45;1</title>
<ellipse fill="#add8e6" stroke="#add8e6" cx="92.8973" cy="-192" rx="33.2948" ry="18"/>
<text text-anchor="middle" x="92.8973" y="-188.3" font-family="Times,serif" font-size="14.00" fill="#000000">Rainy</text>
</g>
<!-- q&#45;0&#45;&gt;q&#45;1 -->
<g id="edge14" class="edge">
<title>q&#45;0&#45;&gt;q&#45;1</title>
<path fill="none" stroke="#000000" d="M188.0451,-263.5797C175.3978,-253.3336 158.2978,-239.6693 142.8973,-228 136.1836,-222.9128 128.8689,-217.5488 121.9584,-212.5597"/>
<polygon fill="#000000" stroke="#000000" points="123.6625,-209.4747 113.4968,-206.4897 119.5822,-215.1626 123.6625,-209.4747"/>
<text text-anchor="middle" x="173.3973" y="-231.8" font-family="Times,serif" font-size="14.00" fill="#000000">0.32</text>
</g>
<!-- q&#45;2 -->
<g id="node3" class="node">
<title>q&#45;2</title>
<ellipse fill="#add8e6" stroke="#add8e6" cx="242.8973" cy="-105" rx="37.8943" ry="18"/>
<text text-anchor="middle" x="242.8973" y="-101.3" font-family="Times,serif" font-size="14.00" fill="#000000">Snowy</text>
</g>
<!-- q&#45;0&#45;&gt;q&#45;2 -->
<g id="edge15" class="edge">
<title>q&#45;0&#45;&gt;q&#45;2</title>
<path fill="none" stroke="#000000" d="M216.7869,-261.377C229.1563,-238.1146 249.4907,-195.4797 255.8973,-156 256.9652,-149.4194 257.0467,-147.5668 255.8973,-141 255.4198,-138.2713 254.753,-135.4767 253.9713,-132.71"/>
<polygon fill="#000000" stroke="#000000" points="257.2198,-131.3844 250.7696,-122.9794 250.5705,-133.5723 257.2198,-131.3844"/>
<text text-anchor="middle" x="264.3973" y="-188.3" font-family="Times,serif" font-size="14.00" fill="#000000">0.26</text>
</g>
<!-- o&#45;0 -->
<g id="node4" class="node">
<title>o&#45;0</title>
<ellipse fill="#d3f0ce" stroke="#d3f0ce" cx="379.8973" cy="-18" rx="27" ry="18"/>
<text text-anchor="middle" x="379.8973" y="-14.3" font-family="Times,serif" font-size="14.00" fill="#000000">Ant</text>
</g>
<!-- q&#45;0&#45;&gt;o&#45;0 -->
<g id="edge4" class="edge">
<title>q&#45;0&#45;&gt;o&#45;0</title>
<path fill="none" stroke="#000000" d="M241.4096,-274.024C276.7319,-268.2193 328.3163,-257.5321 341.8973,-243 392.5886,-188.759 389.4273,-93.3575 384.0934,-46.1246"/>
<polygon fill="#000000" stroke="#000000" points="387.5422,-45.4962 382.8318,-36.0061 380.596,-46.3623 387.5422,-45.4962"/>
<text text-anchor="middle" x="396.3973" y="-144.8" font-family="Times,serif" font-size="14.00" fill="#000000">0.50</text>
</g>
<!-- o&#45;1 -->
<g id="node5" class="node">
<title>o&#45;1</title>
<ellipse fill="#d3f0ce" stroke="#d3f0ce" cx="29.8973" cy="-18" rx="29.795" ry="18"/>
<text text-anchor="middle" x="29.8973" y="-14.3" font-family="Times,serif" font-size="14.00" fill="#000000">Snail</text>
</g>
<!-- q&#45;0&#45;&gt;o&#45;1 -->
<g id="edge5" class="edge">
<title>q&#45;0&#45;&gt;o&#45;1</title>
<path fill="none" stroke="#000000" d="M178.7021,-267.7652C172.5394,-265.4322 166.0265,-263.0594 159.8973,-261 109.1978,-243.9648 86.1041,-250.2632 50.8973,-210 4.7214,-157.1921 22.3729,-124.003 26.8973,-54 27.0543,-51.5709 27.2327,-49.0508 27.4223,-46.5233"/>
<polygon fill="#000000" stroke="#000000" points="30.9311,-46.5516 28.2394,-36.3044 23.9534,-45.9936 30.9311,-46.5516"/>
<text text-anchor="middle" x="35.3973" y="-144.8" font-family="Times,serif" font-size="14.00" fill="#000000">0.27</text>
</g>
<!-- o&#45;2 -->
<g id="node6" class="node">
<title>o&#45;2</title>
<ellipse fill="#d3f0ce" stroke="#d3f0ce" cx="242.8973" cy="-18" rx="50.8918" ry="18"/>
<text text-anchor="middle" x="242.8973" y="-14.3" font-family="Times,serif" font-size="14.00" fill="#000000">White Fox</text>
</g>
<!-- q&#45;0&#45;&gt;o&#45;2 -->
<g id="edge6" class="edge">
<title>q&#45;0&#45;&gt;o&#45;2</title>
<path fill="none" stroke="#000000" d="M226.9324,-264.0572C258.3387,-239.0815 317.3867,-185.4014 334.8973,-123 339.2202,-107.595 342.0528,-101.3108 334.8973,-87 324.0573,-65.3199 302.8075,-48.6845 283.4594,-37.185"/>
<polygon fill="#000000" stroke="#000000" points="285.176,-34.1349 274.7478,-32.2632 281.7327,-40.2295 285.176,-34.1349"/>
<text text-anchor="middle" x="341.3973" y="-144.8" font-family="Times,serif" font-size="14.00" fill="#000000">0.22</text>
</g>
<!-- q&#45;1&#45;&gt;q&#45;0 -->
<g id="edge16" class="edge">
<title>q&#45;1&#45;&gt;q&#45;0</title>
<path fill="none" stroke="#000000" d="M95.7621,-210.0802C98.3262,-220.8732 103.1029,-234.1561 111.8973,-243 125.6437,-256.8236 145.2295,-265.4213 163.0497,-270.7288"/>
<polygon fill="#000000" stroke="#000000" points="162.1524,-274.1118 172.7199,-273.3511 163.9846,-267.3558 162.1524,-274.1118"/>
<text text-anchor="middle" x="125.3973" y="-231.8" font-family="Times,serif" font-size="14.00" fill="#000000">0.35</text>
</g>
<!-- q&#45;1&#45;&gt;q&#45;1 -->
<g id="edge17" class="edge">
<title>q&#45;1&#45;&gt;q&#45;1</title>
<path fill="none" stroke="#000000" d="M122.8429,-199.8442C134.421,-200.1929 144.0444,-197.5781 144.0444,-192 144.0444,-188.165 139.4959,-185.7307 132.8907,-184.6971"/>
<polygon fill="#000000" stroke="#000000" points="133.0168,-181.1989 122.8429,-184.1558 132.6401,-188.1888 133.0168,-181.1989"/>
<text text-anchor="middle" x="157.5444" y="-188.3" font-family="Times,serif" font-size="14.00" fill="#000000">0.35</text>
</g>
<!-- q&#45;1&#45;&gt;q&#45;2 -->
<g id="edge18" class="edge">
<title>q&#45;1&#45;&gt;q&#45;2</title>
<path fill="none" stroke="#000000" d="M108.7619,-175.6537C120.0211,-164.746 135.9174,-150.6824 151.8973,-141 167.1796,-131.7403 185.264,-124.0128 201.2689,-118.1215"/>
<polygon fill="#000000" stroke="#000000" points="202.6698,-121.3382 210.9218,-114.6933 200.3271,-114.7418 202.6698,-121.3382"/>
<text text-anchor="middle" x="165.3973" y="-144.8" font-family="Times,serif" font-size="14.00" fill="#000000">0.29</text>
</g>
<!-- q&#45;1&#45;&gt;o&#45;0 -->
<g id="edge7" class="edge">
<title>q&#45;1&#45;&gt;o&#45;0</title>
<path fill="none" stroke="#000000" d="M103.4424,-174.856C111.8858,-160.9871 123.9243,-140.8917 133.8973,-123 150.7384,-92.7871 141.59,-73.878 169.8973,-54 194.3054,-36.8601 273.5654,-41.4006 302.8973,-36 316.6404,-33.4696 331.628,-30.1057 344.6978,-26.9712"/>
<polygon fill="#000000" stroke="#000000" points="345.8236,-30.2992 354.7079,-24.5268 344.1631,-23.499 345.8236,-30.2992"/>
<text text-anchor="middle" x="159.3973" y="-101.3" font-family="Times,serif" font-size="14.00" fill="#000000">0.26</text>
</g>
<!-- q&#45;1&#45;&gt;o&#45;1 -->
<g id="edge8" class="edge">
<title>q&#45;1&#45;&gt;o&#45;1</title>
<path fill="none" stroke="#000000" d="M77.8834,-175.7852C66.5874,-162.5959 51.7548,-142.9601 43.8973,-123 34.1583,-98.26 30.9543,-67.9754 30.0102,-46.2991"/>
<polygon fill="#000000" stroke="#000000" points="33.5031,-46.0084 29.7046,-36.1179 26.5063,-46.2184 33.5031,-46.0084"/>
<text text-anchor="middle" x="57.3973" y="-101.3" font-family="Times,serif" font-size="14.00" fill="#000000">0.43</text>
</g>
<!-- q&#45;1&#45;&gt;o&#45;2 -->
<g id="edge9" class="edge">
<title>q&#45;1&#45;&gt;o&#45;2</title>
<path fill="none" stroke="#000000" d="M91.7473,-173.8318C91.1418,-151.9954 92.636,-114.8216 106.8973,-87 122.6449,-56.2791 157.6318,-38.9526 188.1746,-29.3456"/>
<polygon fill="#000000" stroke="#000000" points="189.2948,-32.6645 197.9048,-26.4905 187.3239,-25.9477 189.2948,-32.6645"/>
<text text-anchor="middle" x="120.3973" y="-101.3" font-family="Times,serif" font-size="14.00" fill="#000000">0.32</text>
</g>
<!-- q&#45;2&#45;&gt;q&#45;0 -->
<g id="edge19" class="edge">
<title>q&#45;2&#45;&gt;q&#45;0</title>
<path fill="none" stroke="#000000" d="M240.3361,-123.4219C238.3314,-133.5685 234.847,-146.0782 228.8973,-156 222.9152,-165.9761 214.6457,-163.3811 209.8973,-174 199.0216,-198.3217 199.582,-229.0794 202.0677,-251.0064"/>
<polygon fill="#000000" stroke="#000000" points="198.6085,-251.5454 203.4009,-260.9943 205.5469,-250.6191 198.6085,-251.5454"/>
<text text-anchor="middle" x="223.3973" y="-188.3" font-family="Times,serif" font-size="14.00" fill="#000000">0.26</text>
</g>
<!-- q&#45;2&#45;&gt;q&#45;1 -->
<g id="edge20" class="edge">
<title>q&#45;2&#45;&gt;q&#45;1</title>
<path fill="none" stroke="#000000" d="M225.3927,-121.1503C213.0474,-131.9705 195.7677,-146.01 178.8973,-156 163.931,-164.8625 146.3758,-172.628 131.0422,-178.6559"/>
<polygon fill="#000000" stroke="#000000" points="129.431,-175.5245 121.3363,-182.3602 131.927,-182.0644 129.431,-175.5245"/>
<text text-anchor="middle" x="212.3973" y="-144.8" font-family="Times,serif" font-size="14.00" fill="#000000">0.35</text>
</g>
<!-- q&#45;2&#45;&gt;q&#45;2 -->
<g id="edge21" class="edge">
<title>q&#45;2&#45;&gt;q&#45;2</title>
<path fill="none" stroke="#000000" d="M276.8882,-112.8707C288.871,-112.9966 298.594,-110.373 298.594,-105 298.594,-101.306 293.9984,-98.9116 287.2322,-97.8168"/>
<polygon fill="#000000" stroke="#000000" points="287.0983,-94.3002 276.8882,-97.1293 286.634,-101.2848 287.0983,-94.3002"/>
<text text-anchor="middle" x="312.094" y="-101.3" font-family="Times,serif" font-size="14.00" fill="#000000">0.39</text>
</g>
<!-- q&#45;2&#45;&gt;o&#45;0 -->
<g id="edge10" class="edge">
<title>q&#45;2&#45;&gt;o&#45;0</title>
<path fill="none" stroke="#000000" d="M265.8281,-90.4382C289.4042,-75.4665 326.1607,-52.1247 351.5469,-36.0036"/>
<polygon fill="#000000" stroke="#000000" points="353.4464,-38.9434 360.0118,-30.628 349.6939,-33.0342 353.4464,-38.9434"/>
<text text-anchor="middle" x="332.3973" y="-57.8" font-family="Times,serif" font-size="14.00" fill="#000000">0.22</text>
</g>
<!-- q&#45;2&#45;&gt;o&#45;1 -->
<g id="edge11" class="edge">
<title>q&#45;2&#45;&gt;o&#45;1</title>
<path fill="none" stroke="#000000" d="M214.1712,-93.2668C175.2744,-77.3794 105.9441,-49.0613 64.3114,-32.0565"/>
<polygon fill="#000000" stroke="#000000" points="65.4435,-28.7382 54.8625,-28.197 62.7966,-35.2185 65.4435,-28.7382"/>
<text text-anchor="middle" x="162.3973" y="-57.8" font-family="Times,serif" font-size="14.00" fill="#000000">0.24</text>
</g>
<!-- q&#45;2&#45;&gt;o&#45;2 -->
<g id="edge12" class="edge">
<title>q&#45;2&#45;&gt;o&#45;2</title>
<path fill="none" stroke="#000000" d="M242.8973,-86.9735C242.8973,-75.1918 242.8973,-59.5607 242.8973,-46.1581"/>
<polygon fill="#000000" stroke="#000000" points="246.3974,-46.0033 242.8973,-36.0034 239.3974,-46.0034 246.3974,-46.0033"/>
<text text-anchor="middle" x="256.3973" y="-57.8" font-family="Times,serif" font-size="14.00" fill="#000000">0.54</text>
</g>
<!-- pi -->
<g id="node7" class="node">
<title>pi</title>
<ellipse fill="none" stroke="#000000" cx="206.8973" cy="-366" rx="27" ry="18"/>
<text text-anchor="middle" x="206.8973" y="-362.3" font-family="Times,serif" font-size="14.00" fill="#000000">pi</text>
</g>
<!-- pi&#45;&gt;q&#45;0 -->
<g id="edge1" class="edge">
<title>pi&#45;&gt;q&#45;0</title>
<path fill="none" stroke="#000000" d="M206.8973,-347.9735C206.8973,-336.1918 206.8973,-320.5607 206.8973,-307.1581"/>
<polygon fill="#000000" stroke="#000000" points="210.3974,-307.0033 206.8973,-297.0034 203.3974,-307.0034 210.3974,-307.0033"/>
<text text-anchor="middle" x="220.3973" y="-318.8" font-family="Times,serif" font-size="14.00" fill="#000000">0.30</text>
</g>
<!-- pi&#45;&gt;q&#45;1 -->
<g id="edge2" class="edge">
<title>pi&#45;&gt;q&#45;1</title>
<path fill="none" stroke="#000000" d="M188.4277,-352.6746C162.2193,-332.4628 115.4704,-291.2585 97.8973,-243 95.3317,-235.9544 93.9135,-228.0202 93.1652,-220.5461"/>
<polygon fill="#000000" stroke="#000000" points="96.6487,-220.1774 92.5038,-210.427 89.6636,-220.634 96.6487,-220.1774"/>
<text text-anchor="middle" x="142.3973" y="-275.3" font-family="Times,serif" font-size="14.00" fill="#000000">0.30</text>
</g>
<!-- pi&#45;&gt;q&#45;2 -->
<g id="edge3" class="edge">
<title>pi&#45;&gt;q&#45;2</title>
<path fill="none" stroke="#000000" d="M229.4935,-356.086C251.287,-345.1408 282.9586,-325.2502 296.8973,-297 328.0317,-233.8988 303.3929,-202.8802 269.8973,-141 267.9449,-137.393 265.6577,-133.7513 263.2552,-130.241"/>
<polygon fill="#000000" stroke="#000000" points="265.8847,-127.9061 257.1705,-121.88 260.2248,-132.0251 265.8847,-127.9061"/>
<text text-anchor="middle" x="324.3973" y="-231.8" font-family="Times,serif" font-size="14.00" fill="#000000">0.40</text>
</g>
</g>
</svg>
