<?xml version="1.0" encoding="UTF-8" standalone="no"?>
<!DOCTYPE svg PUBLIC "-//W3C//DTD SVG 1.1//EN"
 "http://www.w3.org/Graphics/SVG/1.1/DTD/svg11.dtd">
<!-- Generated by graphviz version 2.38.0 (20140413.2041)
 -->
<!-- Title: Hidden Markov Model Pages: 1 -->
<svg width="405pt" height="392pt"
 viewBox="0.00 0.00 404.60 392.00" xmlns="http://www.w3.org/2000/svg" xmlns:xlink="http://www.w3.org/1999/xlink">
<g id="graph0" class="graph" transform="scale(1 1) rotate(0) translate(4 388)">
<title>Hidden Markov Model</title>
<polygon fill="white" stroke="none" points="-4,4 -4,-388 400.597,-388 400.597,4 -4,4"/>
<!-- q&#45;0 -->
<g id="node1" class="node"><title>q&#45;0</title>
<ellipse fill="lightblue" stroke="lightblue" cx="200.597" cy="-279" rx="33.2948" ry="18"/>
<text text-anchor="middle" x="200.597" y="-275.3" font-family="Times,serif" font-size="14.00">Sunny</text>
</g>
<!-- q&#45;0&#45;&gt;q&#45;0 -->
<g id="edge13" class="edge"><title>q&#45;0&#45;&gt;q&#45;0</title>
<path fill="none" stroke="black" d="M230.543,-286.844C242.121,-287.193 251.745,-284.578 251.745,-279 251.745,-275.165 247.196,-272.731 240.591,-271.697"/>
<polygon fill="black" stroke="black" points="240.717,-268.199 230.543,-271.156 240.34,-275.189 240.717,-268.199"/>
<text text-anchor="middle" x="264.245" y="-275.3" font-family="Times,serif" font-size="14.00">0.43</text>
</g>
<!-- q&#45;1 -->
<g id="node2" class="node"><title>q&#45;1</title>
<ellipse fill="lightblue" stroke="lightblue" cx="89.5975" cy="-192" rx="31.6951" ry="18"/>
<text text-anchor="middle" x="89.5975" y="-188.3" font-family="Times,serif" font-size="14.00">Rainy</text>
</g>
<!-- q&#45;0&#45;&gt;q&#45;1 -->
<g id="edge14" class="edge"><title>q&#45;0&#45;&gt;q&#45;1</title>
<path fill="none" stroke="black" d="M183.176,-263.499C170.868,-253.366 153.905,-239.624 138.597,-228 131.807,-222.843 124.369,-217.42 117.386,-212.423"/>
<polygon fill="black" stroke="black" points="119.047,-209.31 108.867,-206.374 114.994,-215.017 119.047,-209.31"/>
<text text-anchor="middle" x="171.097" y="-231.8" font-family="Times,serif" font-size="14.00">0.32</text>
</g>
<!-- q&#45;2 -->
<g id="node3" class="node"><title>q&#45;2</title>
<ellipse fill="lightblue" stroke="lightblue" cx="235.597" cy="-105" rx="35.194" ry="18"/>
<text text-anchor="middle" x="235.597" y="-101.3" font-family="Times,serif" font-size="14.00">Snowy</text>
</g>
<!-- q&#45;0&#45;&gt;q&#45;2 -->
<g id="edge15" class="edge"><title>q&#45;0&#45;&gt;q&#45;2</title>
<path fill="none" stroke="black" d="M209.424,-261.646C221.158,-238.797 241.162,-195.657 247.597,-156 248.836,-148.367 247.863,-140.174 246.032,-132.675"/>
<polygon fill="black" stroke="black" points="249.355,-131.571 243.132,-122.996 242.65,-133.58 249.355,-131.571"/>
<text text-anchor="middle" x="256.097" y="-188.3" font-family="Times,serif" font-size="14.00">0.26</text>
</g>
<!-- o&#45;0 -->
<g id="node4" class="node"><title>o&#45;0</title>
<ellipse fill="#d3f0ce" stroke="#d3f0ce" cx="365.597" cy="-18" rx="27" ry="18"/>
<text text-anchor="middle" x="365.597" y="-14.3" font-family="Times,serif" font-size="14.00">Ant</text>
</g>
<!-- q&#45;0&#45;&gt;o&#45;0 -->
<g id="edge4" class="edge"><title>q&#45;0&#45;&gt;o&#45;0</title>
<path fill="none" stroke="black" d="M233.904,-278.299C263.361,-276.668 305.32,-269.382 329.597,-243 379.951,-188.28 375.615,-92.4424 369.868,-45.8941"/>
<polygon fill="black" stroke="black" points="373.333,-45.3974 368.524,-35.9565 366.396,-46.3353 373.333,-45.3974"/>
<text text-anchor="middle" x="384.097" y="-144.8" font-family="Times,serif" font-size="14.00">0.50</text>
</g>
<!-- o&#45;1 -->
<g id="node5" class="node"><title>o&#45;1</title>
<ellipse fill="#d3f0ce" stroke="#d3f0ce" cx="28.5975" cy="-18" rx="28.6953" ry="18"/>
<text text-anchor="middle" x="28.5975" y="-14.3" font-family="Times,serif" font-size="14.00">Snail</text>
</g>
<!-- q&#45;0&#45;&gt;o&#45;1 -->
<g id="edge5" class="edge"><title>q&#45;0&#45;&gt;o&#45;1</title>
<path fill="none" stroke="black" d="M174.989,-267.152C169.613,-265.011 163.949,-262.854 158.597,-261 107.68,-243.356 83.6668,-250.915 48.5975,-210 2.98869,-156.789 21.3959,-123.957 25.5975,-54 25.751,-51.4432 25.9349,-48.7832 26.1351,-46.1228"/>
<polygon fill="black" stroke="black" points="29.6298,-46.3295 26.958,-36.0771 22.6532,-45.758 29.6298,-46.3295"/>
<text text-anchor="middle" x="33.0975" y="-144.8" font-family="Times,serif" font-size="14.00">0.27</text>
</g>
<!-- o&#45;2 -->
<g id="node6" class="node"><title>o&#45;2</title>
<ellipse fill="#d3f0ce" stroke="#d3f0ce" cx="235.597" cy="-18" rx="48.9926" ry="18"/>
<text text-anchor="middle" x="235.597" y="-14.3" font-family="Times,serif" font-size="14.00">White Fox</text>
</g>
<!-- q&#45;0&#45;&gt;o&#45;2 -->
<g id="edge6" class="edge"><title>q&#45;0&#45;&gt;o&#45;2</title>
<path fill="none" stroke="black" d="M218.81,-263.774C248.598,-239.059 306.084,-184.873 322.597,-123 326.723,-107.541 329.61,-101.381 322.597,-87 312.272,-65.8245 291.812,-49.3094 273.326,-37.8599"/>
<polygon fill="black" stroke="black" points="274.857,-34.7 264.463,-32.6479 271.309,-40.734 274.857,-34.7"/>
<text text-anchor="middle" x="329.097" y="-144.8" font-family="Times,serif" font-size="14.00">0.22</text>
</g>
<!-- q&#45;1&#45;&gt;q&#45;0 -->
<g id="edge16" class="edge"><title>q&#45;1&#45;&gt;q&#45;0</title>
<path fill="none" stroke="black" d="M92.8191,-210.248C95.6183,-220.914 100.68,-234.201 109.597,-243 123.094,-256.318 142.202,-264.682 159.427,-269.878"/>
<polygon fill="black" stroke="black" points="158.725,-273.314 169.295,-272.584 160.577,-266.564 158.725,-273.314"/>
<text text-anchor="middle" x="122.097" y="-231.8" font-family="Times,serif" font-size="14.00">0.35</text>
</g>
<!-- q&#45;1&#45;&gt;q&#45;1 -->
<g id="edge17" class="edge"><title>q&#45;1&#45;&gt;q&#45;1</title>
<path fill="none" stroke="black" d="M118.283,-199.827C129.788,-200.269 139.445,-197.66 139.445,-192 139.445,-188.109 134.88,-185.659 128.289,-184.652"/>
<polygon fill="black" stroke="black" points="128.439,-181.156 118.283,-184.173 128.104,-188.148 128.439,-181.156"/>
<text text-anchor="middle" x="151.945" y="-188.3" font-family="Times,serif" font-size="14.00">0.35</text>
</g>
<!-- q&#45;1&#45;&gt;q&#45;2 -->
<g id="edge18" class="edge"><title>q&#45;1&#45;&gt;q&#45;2</title>
<path fill="none" stroke="black" d="M104.565,-175.943C115.904,-165.154 132.272,-150.847 148.597,-141 163.464,-132.033 181.042,-124.463 196.492,-118.682"/>
<polygon fill="black" stroke="black" points="198.071,-121.834 206.288,-115.145 195.694,-115.25 198.071,-121.834"/>
<text text-anchor="middle" x="161.097" y="-144.8" font-family="Times,serif" font-size="14.00">0.29</text>
</g>
<!-- q&#45;1&#45;&gt;o&#45;0 -->
<g id="edge7" class="edge"><title>q&#45;1&#45;&gt;o&#45;0</title>
<path fill="none" stroke="black" d="M99.239,-174.615C107.247,-160.905 118.861,-140.788 128.597,-123 145.205,-92.6581 136.331,-73.9363 164.597,-54 211.904,-20.6349 236.699,-46.6628 293.597,-36 305.802,-33.7128 319.058,-30.7286 330.829,-27.9"/>
<polygon fill="black" stroke="black" points="331.848,-31.254 340.728,-25.4757 330.183,-24.4549 331.848,-31.254"/>
<text text-anchor="middle" x="154.097" y="-101.3" font-family="Times,serif" font-size="14.00">0.26</text>
</g>
<!-- q&#45;1&#45;&gt;o&#45;1 -->
<g id="edge8" class="edge"><title>q&#45;1&#45;&gt;o&#45;1</title>
<path fill="none" stroke="black" d="M75.8739,-175.743C64.9713,-162.706 50.3158,-142.941 42.5975,-123 32.9776,-98.1459 29.7804,-67.7375 28.8069,-46.238"/>
<polygon fill="black" stroke="black" points="32.303,-46.0562 28.4837,-36.1737 25.3066,-46.2809 32.303,-46.0562"/>
<text text-anchor="middle" x="55.0975" y="-101.3" font-family="Times,serif" font-size="14.00">0.43</text>
</g>
<!-- q&#45;1&#45;&gt;o&#45;2 -->
<g id="edge9" class="edge"><title>q&#45;1&#45;&gt;o&#45;2</title>
<path fill="none" stroke="black" d="M88.6405,-173.827C88.1556,-152.377 89.6972,-115.084 103.597,-87 118.7,-56.4869 153.352,-39.3589 183.363,-29.9263"/>
<polygon fill="black" stroke="black" points="184.711,-33.1788 193.327,-27.0142 182.747,-26.4599 184.711,-33.1788"/>
<text text-anchor="middle" x="116.097" y="-101.3" font-family="Times,serif" font-size="14.00">0.32</text>
</g>
<!-- q&#45;2&#45;&gt;q&#45;0 -->
<g id="edge19" class="edge"><title>q&#45;2&#45;&gt;q&#45;0</title>
<path fill="none" stroke="black" d="M232.956,-123.002C230.889,-133.067 227.369,-145.801 221.597,-156 216.178,-165.577 208.859,-163.855 204.597,-174 194.302,-198.512 194.52,-229.204 196.567,-250.874"/>
<polygon fill="black" stroke="black" points="193.112,-251.471 197.72,-261.012 200.068,-250.68 193.112,-251.471"/>
<text text-anchor="middle" x="217.097" y="-188.3" font-family="Times,serif" font-size="14.00">0.26</text>
</g>
<!-- q&#45;2&#45;&gt;q&#45;1 -->
<g id="edge20" class="edge"><title>q&#45;2&#45;&gt;q&#45;1</title>
<path fill="none" stroke="black" d="M219.448,-121.169C207.46,-131.875 190.353,-146.03 173.597,-156 158.673,-164.88 141.078,-172.587 125.858,-178.491"/>
<polygon fill="black" stroke="black" points="124.378,-175.308 116.251,-182.105 126.843,-181.86 124.378,-175.308"/>
<text text-anchor="middle" x="208.097" y="-144.8" font-family="Times,serif" font-size="14.00">0.35</text>
</g>
<!-- q&#45;2&#45;&gt;q&#45;2 -->
<g id="edge21" class="edge"><title>q&#45;2&#45;&gt;q&#45;2</title>
<path fill="none" stroke="black" d="M267.214,-112.858C278.996,-113.115 288.694,-110.496 288.694,-105 288.694,-101.221 284.11,-98.8026 277.417,-97.7436"/>
<polygon fill="black" stroke="black" points="277.402,-94.2368 267.214,-97.1423 276.99,-101.225 277.402,-94.2368"/>
<text text-anchor="middle" x="301.194" y="-101.3" font-family="Times,serif" font-size="14.00">0.39</text>
</g>
<!-- q&#45;2&#45;&gt;o&#45;0 -->
<g id="edge10" class="edge"><title>q&#45;2&#45;&gt;o&#45;0</title>
<path fill="none" stroke="black" d="M256.484,-90.3433C278.729,-75.7983 314.027,-52.7195 338.422,-36.7686"/>
<polygon fill="black" stroke="black" points="340.418,-39.6454 346.872,-31.2435 336.587,-33.7866 340.418,-39.6454"/>
<text text-anchor="middle" x="321.097" y="-57.8" font-family="Times,serif" font-size="14.00">0.22</text>
</g>
<!-- q&#45;2&#45;&gt;o&#45;1 -->
<g id="edge11" class="edge"><title>q&#45;2&#45;&gt;o&#45;1</title>
<path fill="none" stroke="black" d="M208.96,-93.0617C171.232,-77.5696 102.288,-49.2594 61.44,-32.4861"/>
<polygon fill="black" stroke="black" points="62.5222,-29.1469 51.9422,-28.586 59.8632,-35.6222 62.5222,-29.1469"/>
<text text-anchor="middle" x="157.097" y="-57.8" font-family="Times,serif" font-size="14.00">0.24</text>
</g>
<!-- q&#45;2&#45;&gt;o&#45;2 -->
<g id="edge12" class="edge"><title>q&#45;2&#45;&gt;o&#45;2</title>
<path fill="none" stroke="black" d="M235.597,-86.799C235.597,-75.1626 235.597,-59.5479 235.597,-46.2368"/>
<polygon fill="black" stroke="black" points="239.098,-46.1754 235.597,-36.1754 232.098,-46.1755 239.098,-46.1754"/>
<text text-anchor="middle" x="248.097" y="-57.8" font-family="Times,serif" font-size="14.00">0.54</text>
</g>
<!-- pi -->
<g id="node7" class="node"><title>pi</title>
<ellipse fill="none" stroke="black" cx="200.597" cy="-366" rx="27" ry="18"/>
<text text-anchor="middle" x="200.597" y="-362.3" font-family="Times,serif" font-size="14.00">pi</text>
</g>
<!-- pi&#45;&gt;q&#45;0 -->
<g id="edge1" class="edge"><title>pi&#45;&gt;q&#45;0</title>
<path fill="none" stroke="black" d="M200.597,-347.799C200.597,-336.163 200.597,-320.548 200.597,-307.237"/>
<polygon fill="black" stroke="black" points="204.098,-307.175 200.597,-297.175 197.098,-307.175 204.098,-307.175"/>
<text text-anchor="middle" x="213.097" y="-318.8" font-family="Times,serif" font-size="14.00">0.30</text>
</g>
<!-- pi&#45;&gt;q&#45;1 -->
<g id="edge2" class="edge"><title>pi&#45;&gt;q&#45;1</title>
<path fill="none" stroke="black" d="M183.738,-351.816C159.258,-331.508 114.81,-289.969 96.5975,-243 93.8406,-235.89 92.149,-227.838 91.1172,-220.305"/>
<polygon fill="black" stroke="black" points="94.5768,-219.736 90.0554,-210.155 87.6148,-220.464 94.5768,-219.736"/>
<text text-anchor="middle" x="142.097" y="-275.3" font-family="Times,serif" font-size="14.00">0.30</text>
</g>
<!-- pi&#45;&gt;q&#45;2 -->
<g id="edge3" class="edge"><title>pi&#45;&gt;q&#45;2</title>
<path fill="none" stroke="black" d="M221.966,-354.982C242.571,-344.002 272.499,-324.253 285.597,-297 315.957,-233.834 294.69,-203.303 262.597,-141 260.621,-137.162 258.209,-133.321 255.649,-129.664"/>
<polygon fill="black" stroke="black" points="258.352,-127.435 249.542,-121.55 252.759,-131.645 258.352,-127.435"/>
<text text-anchor="middle" x="313.097" y="-231.8" font-family="Times,serif" font-size="14.00">0.40</text>
</g>
</g>
</svg>
